<svg width="512" height="512" viewBox="0 0 512 512" fill="none" xmlns="http://www.w3.org/2000/svg">
<rect width="512" height="512" fill="white" style="fill:white;fill-opacity:1;"/>
<path d="M302 240.667V240.816" stroke="#0F956A" style="stroke:#0F956A;stroke:color(display-p3 0.0588 0.5843 0.4157);stroke-opacity:1;" stroke-width="15" stroke-linecap="round" stroke-linejoin="round"/>
<path d="M151.319 200.463C144.594 195.294 139.429 188.366 136.395 180.445C133.361 172.525 132.576 163.919 134.126 155.58C135.677 147.241 139.503 139.493 145.182 133.193C150.861 126.892 158.171 122.285 166.305 119.879C174.439 117.474 183.079 117.364 191.272 119.562C199.464 121.76 206.889 126.18 212.726 132.334C218.563 138.489 222.585 146.137 224.347 154.434C226.109 162.731 225.543 171.353 222.711 179.349" stroke="#FFE207" style="stroke:#FFE207;stroke:color(display-p3 1.0000 0.8867 0.0292);stroke-opacity:1;" stroke-width="15" stroke-linecap="round" stroke-linejoin="round"/>
<path d="M317.333 133.333V191.646C336.31 202.627 350.758 220.004 358.089 240.667H378.651C382.718 240.667 386.618 242.282 389.494 245.158C392.369 248.033 393.985 251.933 393.985 256V286.667C393.985 290.733 392.369 294.633 389.494 297.509C386.618 300.385 382.718 302 378.651 302H358.074C352.922 316.567 344.167 329.6 332.651 339.919V371C332.651 377.1 330.228 382.95 325.915 387.263C321.601 391.577 315.751 394 309.651 394C303.551 394 297.701 391.577 293.388 387.263C289.075 382.95 286.651 377.1 286.651 371V362.061C281.584 362.909 276.456 363.335 271.318 363.333H209.985C204.847 363.335 199.718 362.909 194.651 362.061V371C194.651 377.1 192.228 382.95 187.915 387.263C183.601 391.577 177.751 394 171.651 394C165.551 394 159.701 391.577 155.388 387.263C151.075 382.95 148.651 377.1 148.651 371V340.333V339.919C134.759 327.499 124.966 311.152 120.568 293.043C116.171 274.934 117.376 255.917 124.025 238.508C130.674 221.099 142.453 206.12 157.803 195.553C173.153 184.987 191.349 179.33 209.985 179.333H248.318L317.318 133.333H317.333Z" stroke="#0F956A" style="stroke:#0F956A;stroke:color(display-p3 0.0588 0.5843 0.4157);stroke-opacity:1;" stroke-width="15" stroke-linecap="round" stroke-linejoin="round"/>
</svg>
