<svg width="1024" height="1024" viewBox="0 0 1024 1024" fill="none" xmlns="http://www.w3.org/2000/svg">
<rect width="1024" height="1024" fill="white" style="fill:white;fill-opacity:1;"/>
<path d="M604 481.333V481.632" stroke="#0F956A" style="stroke:#0F956A;stroke:color(display-p3 0.0588 0.5843 0.4157);stroke-opacity:1;" stroke-width="25" stroke-linecap="round" stroke-linejoin="round"/>
<path d="M302.639 400.925C289.188 390.588 278.858 376.732 272.79 360.891C266.721 345.049 265.151 327.838 268.253 311.16C271.354 294.482 279.007 278.986 290.364 266.385C301.722 253.784 316.343 244.569 332.61 239.758C348.878 234.947 366.159 234.727 382.543 239.124C398.928 243.52 413.778 252.361 425.452 264.669C437.127 276.977 445.17 292.274 448.695 308.867C452.219 325.461 451.087 342.707 445.423 358.697" stroke="#FFE207" style="stroke:#FFE207;stroke:color(display-p3 1.0000 0.8867 0.0292);stroke-opacity:1;" stroke-width="25" stroke-linecap="round" stroke-linejoin="round"/>
<path d="M634.667 266.667V383.292C672.62 405.253 701.516 440.008 716.179 481.333H757.303C765.436 481.333 773.236 484.564 778.987 490.315C784.738 496.067 787.969 503.867 787.969 512V573.333C787.969 581.467 784.738 589.267 778.987 595.018C773.236 600.769 765.436 604 757.303 604H716.148C705.844 633.133 688.333 659.2 665.303 679.839V742C665.303 754.2 660.456 765.9 651.83 774.527C643.203 783.154 631.503 788 619.303 788C607.103 788 595.402 783.154 586.776 774.527C578.149 765.9 573.303 754.2 573.303 742V724.121C563.169 725.819 552.911 726.67 542.636 726.667H419.969C409.694 726.67 399.437 725.819 389.303 724.121V742C389.303 754.2 384.456 765.9 375.83 774.527C367.203 783.154 355.503 788 343.303 788C331.103 788 319.402 783.154 310.776 774.527C302.149 765.9 297.303 754.2 297.303 742V680.667V679.839C269.517 654.998 249.931 622.304 241.136 586.087C232.341 549.869 234.752 511.834 248.05 477.016C261.348 442.199 284.906 412.24 315.606 391.107C346.305 369.973 382.699 358.661 419.969 358.667H496.636L634.636 266.667H634.667Z" stroke="#0F956A" style="stroke:#0F956A;stroke:color(display-p3 0.0588 0.5843 0.4157);stroke-opacity:1;" stroke-width="25" stroke-linecap="round" stroke-linejoin="round"/>
</svg>
