<svg width="128" height="128" viewBox="0 0 128 128" fill="none" xmlns="http://www.w3.org/2000/svg">
<rect width="128" height="128" fill="white" style="fill:white;fill-opacity:1;"/>
<path d="M75.5 60.1667V60.2047" stroke="#0F956A" style="stroke:#0F956A;stroke:color(display-p3 0.0588 0.5843 0.4157);stroke-opacity:1;" stroke-width="3" stroke-linecap="round" stroke-linejoin="round"/>
<path d="M37.8298 50.1157C36.1485 48.8235 34.8572 47.0916 34.0987 45.1114C33.3402 43.1312 33.1439 40.9798 33.5316 38.895C33.9193 36.8103 34.8758 34.8733 36.2956 33.2982C37.7153 31.7231 39.5428 30.5712 41.5763 29.9698C43.6097 29.3684 45.7699 29.3409 47.8179 29.8905C49.866 30.44 51.7223 31.5451 53.1815 33.0836C54.6408 34.6221 55.6463 36.5342 56.0868 38.6084C56.5274 40.6827 56.3858 42.8383 55.6778 44.8372" stroke="#0F956A" style="stroke:#0F956A;stroke:color(display-p3 0.0588 0.5843 0.4157);stroke-opacity:1;" stroke-width="3" stroke-linecap="round" stroke-linejoin="round"/>
<path d="M79.3333 33.3333V47.9115C84.0775 50.6566 87.6895 55.001 89.5223 60.1667H94.6628C95.6795 60.1667 96.6545 60.5705 97.3734 61.2894C98.0923 62.0083 98.4962 62.9833 98.4962 64V71.6667C98.4962 72.6833 98.0923 73.6584 97.3734 74.3772C96.6545 75.0961 95.6795 75.5 94.6628 75.5H89.5185C88.2305 79.1417 86.0417 82.4 83.1628 84.9798V92.75C83.1628 94.275 82.557 95.7375 81.4787 96.8159C80.4004 97.8942 78.9378 98.5 77.4128 98.5C75.8878 98.5 74.4253 97.8942 73.347 96.8159C72.2686 95.7375 71.6628 94.275 71.6628 92.75V90.5152C70.3961 90.7274 69.1139 90.8338 67.8295 90.8333H52.4962C51.2118 90.8338 49.9296 90.7274 48.6628 90.5152V92.75C48.6628 94.275 48.057 95.7375 46.9787 96.8159C45.9004 97.8942 44.4378 98.5 42.9128 98.5C41.3878 98.5 39.9253 97.8942 38.847 96.8159C37.7686 95.7375 37.1628 94.275 37.1628 92.75V85.0833V84.9798C33.6897 81.8747 31.2414 77.7881 30.142 73.2608C29.0426 68.7336 29.344 63.9792 31.0063 59.627C32.6685 55.2748 35.6133 51.5301 39.4507 48.8883C43.2881 46.2466 47.8373 44.8326 52.4962 44.8333H62.0795L79.3295 33.3333H79.3333Z" stroke="#0F956A" style="stroke:#0F956A;stroke:color(display-p3 0.0588 0.5843 0.4157);stroke-opacity:1;" stroke-width="3" stroke-linecap="round" stroke-linejoin="round"/>
    <style>
        path { fill: #000; }
        @media (prefers-color-scheme: dark) {
            path { fill: #FFF; }
        }
    </style>
</svg>
